<?xml version="1.0" encoding="UTF-8"?>
<svg version="1.1" xmlns="http://www.w3.org/2000/svg" width="512" height="512">
<path d="M0 0 C0.80367508 -0.00817749 1.60735016 -0.01635498 2.43537903 -0.02478027 C5.09810651 -0.04961193 7.76078057 -0.06614879 10.42358398 -0.08056641 C11.3350865 -0.08589008 12.24658901 -0.09121376 13.18571281 -0.09669876 C18.0147505 -0.12342669 22.84376243 -0.14279865 27.67285156 -0.15722656 C31.65843794 -0.17053972 35.64350918 -0.19834418 39.62890625 -0.23925781 C44.44998907 -0.28874655 49.27060634 -0.31336806 54.0919323 -0.32045364 C55.92304503 -0.32714075 57.75414841 -0.34229612 59.58511543 -0.36634445 C78.81718865 -0.60443472 78.81718865 -0.60443472 86.10717773 5.19287109 C90.90068195 10.38296222 93.22843164 14.48445183 93.24139881 21.64654827 C93.24585666 22.78665818 93.2503145 23.92676809 93.25490743 25.10142678 C93.25472307 26.35957139 93.2545387 27.617716 93.25434875 28.91398621 C93.25764763 30.25968463 93.26137325 31.60538207 93.26549023 32.95107824 C93.27551568 36.65717142 93.2792279 40.3632484 93.28187954 44.06935322 C93.28578098 48.06336286 93.29535943 52.05735964 93.30409241 56.05136108 C93.32386137 65.70095275 93.33392358 75.35054547 93.3428202 85.00015232 C93.3472024 89.54327254 93.35256938 94.08639159 93.35780907 98.62951088 C93.37482179 113.73009976 93.38931624 128.83068791 93.39655781 143.9312849 C93.39846773 147.85059294 93.40038806 151.76990097 93.40234375 155.68920898 C93.40282749 156.66334503 93.40331123 157.63748107 93.40380963 158.64113639 C93.41211098 174.42360177 93.43744948 190.20599138 93.46992443 205.98842367 C93.50298706 222.18841658 93.52100585 238.38837097 93.52420205 254.5883978 C93.52636789 263.68553287 93.53512729 272.78255745 93.56066322 281.87965965 C93.58235935 289.6267837 93.59042601 297.37377042 93.58069644 305.1209214 C93.57614856 309.07333577 93.57806608 313.02546674 93.59745789 316.97784233 C93.61506791 320.59834712 93.61410983 324.21836132 93.59856059 327.83887116 C93.59505662 329.764469 93.61122703 331.69007185 93.62816507 333.61559838 C93.5694486 341.50624702 92.70265125 347.10853933 87.32592773 353.21630859 C86.75874023 353.66232422 86.19155273 354.10833984 85.60717773 354.56787109 C84.75639648 355.26009766 84.75639648 355.26009766 83.88842773 355.96630859 C79.20779707 359.18937445 75.3264659 359.49457048 69.7019043 359.49926758 C68.85585632 359.50759109 68.00980835 359.51591461 67.13812256 359.52449036 C64.34130242 359.54858341 61.54471565 359.55736247 58.74780273 359.56396484 C56.79970226 359.57293309 54.85160249 359.58205497 52.90350342 359.59132385 C48.81805753 359.60781548 44.73269359 359.61551404 40.6472168 359.6184082 C35.42391507 359.62378615 30.20138885 359.66144124 24.97830582 359.70715237 C20.95299503 359.73696685 16.92786978 359.74413275 12.90245819 359.74513435 C10.97760219 359.74932944 9.05274527 359.76173508 7.12799835 359.7826519 C4.42810422 359.80965202 1.72999164 359.8047152 -0.9699707 359.79223633 C-2.15169861 359.81448776 -2.15169861 359.81448776 -3.3572998 359.83718872 C-9.96130644 359.75071639 -14.68696856 357.2878843 -19.42388535 352.71474361 C-23.60484127 347.98023425 -25.14049372 343.75750764 -25.15288448 337.51430225 C-25.15995007 336.37492704 -25.16701567 335.23555183 -25.17429537 334.0616501 C-25.17188028 332.81458636 -25.1694652 331.56752262 -25.16697693 330.28266907 C-25.1714303 328.94079276 -25.17674467 327.59891909 -25.18284565 326.25704926 C-25.19702446 322.57071879 -25.19868897 318.88447264 -25.19824874 315.19811881 C-25.19989707 311.22181875 -25.21296395 307.24555342 -25.22444153 303.26927185 C-25.24729006 294.57495939 -25.25521207 285.88067135 -25.26026797 277.18633294 C-25.26352535 271.75639689 -25.2700481 266.32646792 -25.27726936 260.89653587 C-25.29683557 245.85934966 -25.3132395 230.82217004 -25.3161459 215.78497028 C-25.31633347 214.82272024 -25.31652104 213.8604702 -25.31671429 212.86906106 C-25.31708054 210.91838245 -25.31744424 208.96770383 -25.3178054 207.01702521 C-25.31798821 206.0487189 -25.31817102 205.08041259 -25.31835938 204.08276367 C-25.31853992 203.11327387 -25.31872047 202.14378406 -25.31890649 201.14491578 C-25.32244758 185.43826845 -25.34946578 169.73175827 -25.38685726 154.0251585 C-25.42494906 137.89514757 -25.44430344 121.76520466 -25.44460541 105.63514775 C-25.4451898 96.58043533 -25.45367018 87.52588649 -25.48260307 78.4712162 C-25.5071287 70.76040153 -25.51439195 63.04981009 -25.49935555 55.33896694 C-25.49219126 51.40648751 -25.49302278 47.47444878 -25.51576614 43.54201889 C-25.53641322 39.93742614 -25.53370351 36.3336113 -25.5128913 32.72902646 C-25.50776473 30.81692598 -25.52713217 28.90480742 -25.547553 26.99280912 C-25.47321351 19.33594794 -24.21477653 13.60521104 -19.89282227 7.19287109 C-17.54125977 4.93896484 -17.54125977 4.93896484 -15.26782227 3.63037109 C-14.13473633 2.9478125 -14.13473633 2.9478125 -12.97875977 2.25146484 C-8.64967744 0.0544961 -4.74085329 0.02660962 0 0 Z " fill="#56CFE5" transform="translate(400.892822265625,152.80712890625)"/>
<path d="M0 0 C0.74749008 -0.00511093 1.49498016 -0.01022186 2.26512146 -0.01548767 C4.71076698 -0.02927064 7.15612715 -0.02843564 9.60180664 -0.02612305 C11.31759239 -0.03001591 13.03337719 -0.03435179 14.74916077 -0.03910828 C18.33573539 -0.046546 21.92221153 -0.04629683 25.50878906 -0.04101562 C30.08600536 -0.03522129 34.66281696 -0.05216296 39.23996639 -0.0753603 C42.78062768 -0.09014992 46.32119264 -0.0909623 49.86187935 -0.08785057 C51.54863855 -0.08836106 53.23540354 -0.09354717 54.92213249 -0.10366249 C75.93258613 -0.2142239 75.93258613 -0.2142239 83.44946289 6.4621582 C84.07594727 6.99196289 84.70243164 7.52176758 85.34790039 8.06762695 C90.22239557 14.29859929 90.5106299 21.05034853 90.46214294 28.62913513 C90.46752848 29.64642498 90.47291402 30.66371482 90.47846276 31.71183163 C90.49272514 35.10716587 90.48564269 38.5021093 90.47851562 41.89746094 C90.48422005 44.33721225 90.4911846 46.77696089 90.49931335 49.21670532 C90.5153896 55.14762927 90.51734712 61.07845532 90.51210045 67.00938945 C90.50805254 71.83178693 90.50950967 76.65415315 90.51484871 81.47654915 C90.51559713 82.16393167 90.51634555 82.8513142 90.51711665 83.55952649 C90.51864819 84.95611565 90.52018654 86.35270479 90.52173162 87.74929393 C90.53544664 100.83413575 90.53002592 113.9189177 90.51854641 127.00375814 C90.50861418 138.96353618 90.52155623 150.92315952 90.5454806 162.8829137 C90.56988692 175.17663143 90.57947577 187.47027714 90.57282788 199.7640186 C90.56933916 206.66066651 90.57154468 213.55719545 90.5890789 220.453825 C90.60536314 226.93898482 90.60059539 233.4239221 90.58177376 239.90907669 C90.57808715 242.28704967 90.58119837 244.66504453 90.59165955 247.04299736 C90.60486552 250.29340426 90.59332433 253.54283252 90.57566833 256.79319763 C90.59007584 258.19895802 90.59007584 258.19895802 90.60477442 259.63311762 C90.52739971 266.57370383 89.19182215 272.96895831 84.29517072 278.16144937 C78.61664584 283.27895887 74.29977558 284.57307286 66.63745117 284.54931641 C65.36356033 284.5569828 65.36356033 284.5569828 64.06393433 284.56480408 C61.25747625 284.57869994 58.45126378 284.57774316 55.64477539 284.57543945 C53.69188343 284.5793267 51.73899231 284.58366143 49.78610229 284.58842468 C45.69225322 284.59588711 41.59849037 284.59559567 37.50463867 284.59033203 C32.26339777 284.58454072 27.02251063 284.60146017 21.7813282 284.6246767 C17.74752749 284.6394236 13.71381175 284.64028438 9.67998886 284.63716698 C7.74792658 284.63767982 5.81585951 284.64291056 3.88382339 284.6529789 C1.17907123 284.66534294 -1.52499479 284.65855158 -4.22973633 284.64697266 C-5.02474548 284.65461639 -5.81975464 284.66226013 -6.63885498 284.6701355 C-12.77723417 284.61217916 -16.808284 283.08944658 -21.55053711 279.0246582 C-27.3604644 272.29737397 -28.5144219 267.57812777 -28.43347168 258.8818512 C-28.43971164 257.848376 -28.4459516 256.81490081 -28.45238066 255.75010818 C-28.46831012 252.29394676 -28.45570598 248.83849063 -28.44311523 245.38232422 C-28.44853638 242.90168853 -28.45565899 240.42105606 -28.46435547 237.94042969 C-28.48069993 231.90603134 -28.47830966 225.87190881 -28.46670491 219.83752126 C-28.45766203 214.93165689 -28.45645027 210.02584827 -28.46080017 205.11997795 C-28.4614131 204.42106977 -28.46202604 203.72216159 -28.46265754 203.00207437 C-28.46393648 201.58212994 -28.46523333 200.16218553 -28.46654791 198.74224114 C-28.47794801 185.43422573 -28.46484943 172.12632062 -28.44334644 158.81832331 C-28.42547987 147.40779831 -28.42857698 135.99743612 -28.44702148 124.58691406 C-28.46844508 111.32725261 -28.4768453 98.06768781 -28.46457243 84.80801147 C-28.46329828 83.39305907 -28.46204079 81.97810665 -28.46080017 80.56315422 C-28.46018307 79.86702493 -28.45956597 79.17089565 -28.45893016 78.45367153 C-28.45548143 73.55612746 -28.46129539 68.65864486 -28.47071838 63.76111031 C-28.48313208 57.16432639 -28.4742478 50.56780187 -28.45114136 43.97103119 C-28.44585493 41.55071714 -28.44736686 39.13037721 -28.45619202 36.71007347 C-28.46713321 33.40451691 -28.45339966 30.09994292 -28.43347168 26.79444885 C-28.44239457 25.8381165 -28.45131745 24.88178415 -28.46051073 23.89647204 C-28.37907793 16.92568493 -26.85599583 11.46368682 -22.06616211 6.2512207 C-21.44225586 5.80520508 -20.81834961 5.35918945 -20.17553711 4.8996582 C-19.56194336 4.43817383 -18.94834961 3.97668945 -18.31616211 3.5012207 C-12.52413411 0.52949392 -6.4131098 -0.02314489 0 0 Z " fill="#FC6E70" transform="translate(244.925537109375,227.725341796875)"/>
<path d="M0 0 C1.86747553 -0.00337446 3.73494891 -0.00823231 5.60241699 -0.01449585 C9.50257425 -0.02183749 13.40215612 -0.01124961 17.30224609 0.01220703 C22.27869222 0.04069328 27.25378971 0.02427468 32.23018646 -0.00565529 C36.08235671 -0.0238019 39.93421201 -0.01793665 43.78639221 -0.00501633 C45.62024601 -0.00170262 47.45412925 -0.00569701 49.28794861 -0.01741409 C68.33445322 -0.11243061 68.33445322 -0.11243061 75.78125 5.6640625 C81.56727434 11.69930352 83.02821254 18.63356095 83.04194641 26.8991394 C83.04768473 27.93989158 83.04768473 27.93989158 83.05353898 29.00166905 C83.06379281 31.30832044 83.05989147 33.61471936 83.0559082 35.92138672 C83.06025892 37.58267444 83.06544327 39.24396016 83.07139587 40.90524292 C83.08475883 45.40531189 83.08536753 49.90529674 83.08283257 54.40538168 C83.08176097 58.1676784 83.08665111 61.92995823 83.091438 65.69225132 C83.10252396 74.57137708 83.10297579 83.45046052 83.09692383 92.32958984 C83.09088486 101.4767204 83.10319518 110.62369711 83.1244939 119.77080142 C83.1421315 127.63599623 83.14810783 135.50114217 83.14485615 143.36635602 C83.14304651 148.05866056 83.14564761 152.75085537 83.15957069 157.44314194 C83.17217949 161.85747606 83.17017616 166.27157103 83.15715981 170.68590164 C83.15480106 172.30113558 83.15750342 173.91638651 83.16578293 175.53160095 C83.21212645 185.27940896 83.09456706 193.64675382 77.59375 201.9765625 C71.73565112 207.57430143 65.97819404 209.2651546 58.01367188 209.18164062 C57.17679337 209.1886499 56.33991486 209.19565918 55.47767639 209.20288086 C52.73477148 209.22036351 49.99291384 209.20887312 47.25 209.1953125 C45.33003544 209.19801022 43.41007221 209.20189497 41.4901123 209.20690918 C37.47553438 209.21279105 33.4613136 209.20428363 29.44677734 209.18554688 C24.31555498 209.16275817 19.18516966 209.1758883 14.05397797 209.19983673 C10.09211994 209.2143302 6.13045849 209.20967246 2.16859436 209.19932556 C0.27726643 209.19666808 -1.61407967 209.19989339 -3.50538635 209.20924377 C-6.15445853 209.2194681 -8.80219827 209.20382711 -11.45117188 209.18164062 C-12.22335556 209.18973755 -12.99553925 209.19783447 -13.79112244 209.20617676 C-20.19904076 209.10736605 -25.51856028 207.19223241 -30.2421875 202.76953125 C-30.68820313 202.13660156 -31.13421875 201.50367188 -31.59375 200.8515625 C-32.05523437 200.22636719 -32.51671875 199.60117187 -32.9921875 198.95703125 C-35.83132972 193.64946283 -36.46957434 188.37037951 -36.47944641 182.4289856 C-36.48327196 181.73515081 -36.48709751 181.04131603 -36.49103898 180.32645595 C-36.50129281 178.01980456 -36.49739147 175.71340564 -36.4934082 173.40673828 C-36.49775892 171.74545056 -36.50294327 170.08416484 -36.50889587 168.42288208 C-36.52225883 163.92281311 -36.52286753 159.42282826 -36.52033257 154.92274332 C-36.51926097 151.1604466 -36.52415111 147.39816677 -36.528938 143.63587368 C-36.54002396 134.75674792 -36.54047579 125.87766448 -36.53442383 116.99853516 C-36.52838486 107.8514046 -36.54069518 98.70442789 -36.5619939 89.55732358 C-36.5796315 81.69212877 -36.58560783 73.82698283 -36.58235615 65.96176898 C-36.58054651 61.26946444 -36.58314761 56.57726963 -36.59707069 51.88498306 C-36.60967949 47.47064894 -36.60767616 43.05655397 -36.59465981 38.64222336 C-36.59230106 37.02698942 -36.59500342 35.41173849 -36.60328293 33.79652405 C-36.64817624 24.35375014 -36.43634473 16.32702922 -31.65625 7.9140625 C-22.33680792 -0.68849942 -11.92756423 -0.07621047 0 0 Z " fill="#F9DB5F" transform="translate(93.21875,303.3359375)"/>
<path d="M0 0 C1.37387085 1.36169434 1.37387085 1.36169434 3.06137085 3.92419434 C3.39137085 4.25419434 3.72137085 4.58419434 4.06137085 4.92419434 C4.59968924 12.10177292 3.30865177 16.87362684 0.2918396 23.33044434 C-0.10066986 24.20573288 -0.49317932 25.08102142 -0.89758301 25.98283386 C-2.1667148 28.80387056 -3.45862215 31.61380187 -4.75112915 34.42419434 C-5.62560451 36.35743927 -6.4984022 38.29144393 -7.36953735 40.22619629 C-9.08984492 44.0425468 -10.81790245 47.85521749 -12.55288696 51.66491699 C-15.63980213 58.45340399 -18.63925953 65.2786834 -21.62612915 72.11169434 C-22.48381006 74.06368954 -23.34183243 76.01553479 -24.2003479 77.96716309 C-24.77983317 79.28614794 -25.35928668 80.60514675 -25.93862915 81.92419434 C-27.25862915 81.92419434 -28.57862915 81.92419434 -29.93862915 81.92419434 C-31.78027555 79.76512595 -33.32058867 77.71287115 -34.87612915 75.36169434 C-35.29314087 74.7526123 -35.71015259 74.14353027 -36.13980103 73.51599121 C-36.98234224 72.28538619 -37.82008174 71.05147988 -38.65298462 69.81433105 C-40.69487395 66.81237374 -42.81843623 63.87122457 -44.93862915 60.92419434 C-56.11801856 66.01792093 -66.13442506 75.31914163 -75.83364868 82.7479248 C-82.5326051 87.87277667 -89.29100264 92.90872798 -96.09634399 97.89123535 C-99.90982887 100.68507833 -103.70719605 103.49576459 -107.46987915 106.35778809 C-108.5530542 107.18004883 -108.5530542 107.18004883 -109.65811157 108.0189209 C-111.00520543 109.04405099 -112.34936886 110.07304933 -113.68984985 111.10681152 C-119.39139583 115.4405643 -124.30012678 118.56358034 -131.64175415 118.26794434 C-138.26189749 117.27717458 -142.5327139 113.63306454 -146.9815979 108.89294434 C-149.21364268 106.64753402 -151.59005693 104.71268836 -154.06362915 102.73669434 C-160.64818148 97.44341027 -166.78541726 91.70567005 -172.93862915 85.92419434 C-178.15274954 87.51910175 -181.88314119 90.81693675 -186.06362915 94.17419434 C-192.37787236 99.16757135 -198.74947194 104.05230966 -205.25112915 108.79919434 C-212.06524512 113.78055293 -218.80253751 118.85108699 -225.50112915 123.98669434 C-232.62750003 129.44627214 -239.83054549 134.77134039 -247.13247681 139.99304199 C-253.87461573 144.83389477 -260.46463186 149.86383145 -267.0519104 154.91247559 C-273.55929908 159.89320416 -280.13027174 164.77775888 -286.74795532 169.61071777 C-291.05856249 172.76885033 -295.32271223 175.9767762 -299.54800415 179.24841309 C-300.48837524 179.9747998 -301.42874634 180.70118652 -302.39761353 181.44958496 C-304.2112536 182.85455317 -306.02014111 184.26568558 -307.82339478 185.68395996 C-314.04609892 190.50012926 -319.65867724 194.63772872 -327.92178345 194.27087402 C-335.17051304 193.02487523 -341.13320698 187.70631135 -346.68862915 183.23669434 C-348.26349657 181.98977488 -349.83901972 180.74368317 -351.41519165 179.49841309 C-352.56229614 178.58841553 -352.56229614 178.58841553 -353.73257446 177.66003418 C-356.80693318 175.24096706 -359.9263168 172.88574782 -363.06362915 170.54919434 C-364.01495728 169.84020996 -364.9662854 169.13122559 -365.94644165 168.40075684 C-366.60386353 167.91349121 -367.2612854 167.42622559 -367.93862915 166.92419434 C-370.76612879 168.25860805 -373.23473483 169.76188784 -375.7472229 171.61950684 C-376.48327759 172.16220215 -377.21933228 172.70489746 -377.97769165 173.26403809 C-378.76917603 173.85313965 -379.5606604 174.44224121 -380.37612915 175.04919434 C-381.21015259 175.66665527 -382.04417603 176.28411621 -382.9034729 176.92028809 C-390.01662355 182.20222585 -397.06000694 187.57406165 -404.09634399 192.9576416 C-410.6267819 197.94658823 -417.21794504 202.84569265 -423.84487915 207.70544434 C-429.57143359 211.90745849 -435.26206155 216.15493557 -440.93862915 220.42419434 C-447.73448897 225.53009609 -454.54241014 230.61904201 -461.37612915 235.67419434 C-462.55658813 236.5510791 -462.55658813 236.5510791 -463.76089478 237.44567871 C-464.49888306 237.99030762 -465.23687134 238.53493652 -465.9972229 239.09606934 C-466.63973999 239.57141113 -467.28225708 240.04675293 -467.94424438 240.53649902 C-470.21280831 242.11496853 -472.55600461 243.5252316 -474.93862915 244.92419434 C-477.54304433 241.50771704 -480.1471179 238.09097951 -482.75112915 234.67419434 C-483.85811157 233.22206543 -483.85811157 233.22206543 -484.98745728 231.74060059 C-486.05576782 230.33874512 -486.05576782 230.33874512 -487.1456604 228.90856934 C-487.80026245 228.04973145 -488.4548645 227.19089355 -489.12930298 226.30603027 C-489.72638062 225.52002441 -490.32345825 224.73401855 -490.93862915 223.92419434 C-491.82941162 222.90374023 -491.82941162 222.90374023 -492.7381897 221.8626709 C-493.93862915 219.92419434 -493.93862915 219.92419434 -493.85025024 217.85925293 C-492.71356451 215.44645938 -491.52286509 214.50696693 -489.35269165 212.96325684 C-488.59681763 212.41685547 -487.8409436 211.8704541 -487.06216431 211.30749512 C-486.23764771 210.72725586 -485.4131311 210.1470166 -484.56362915 209.54919434 C-482.81347539 208.28899118 -481.06347962 207.02856859 -479.31362915 205.76794434 C-478.41644165 205.12728027 -477.51925415 204.48661621 -476.59487915 203.82653809 C-472.55855696 200.93581911 -468.55959915 197.99532554 -464.56362915 195.04919434 C-463.7864856 194.47765625 -463.00934204 193.90611816 -462.20864868 193.31726074 C-455.33782907 188.2509272 -448.55399515 183.07390159 -441.77505493 177.88562012 C-435.27445659 172.91880351 -428.70842675 168.04941792 -422.10708618 163.21765137 C-416.11613748 158.82129911 -410.20919021 154.32236017 -404.31362915 149.79919434 C-397.77096741 144.79608892 -391.19784382 139.84479186 -384.50112915 135.04919434 C-383.82163208 134.55532227 -383.14213501 134.0614502 -382.44204712 133.5526123 C-377.55237813 130.09274317 -373.38416765 127.96564414 -367.25112915 127.86169434 C-356.38802067 129.73675246 -346.54195031 139.99769077 -338.17300415 146.61950684 C-337.45821899 147.17541504 -336.74343384 147.73132324 -336.00698853 148.30407715 C-334.65823184 149.36053954 -333.32509039 150.4373415 -332.01089478 151.53649902 C-330.04018538 153.17696329 -330.04018538 153.17696329 -326.93862915 154.92419434 C-323.242277 153.89177263 -320.52780318 152.06051596 -317.52456665 149.72106934 C-316.69110718 149.07774658 -315.85764771 148.43442383 -314.99893188 147.77160645 C-314.11278198 147.07946045 -313.22663208 146.38731445 -312.31362915 145.67419434 C-310.41746878 144.21069058 -308.52031348 142.74847509 -306.6222229 141.28747559 C-305.66815552 140.55222656 -304.71408813 139.81697754 -303.73110962 139.05944824 C-299.65162759 135.9400961 -295.51958615 132.89528119 -291.37612915 129.86169434 C-284.86641072 125.0890779 -278.38934598 120.2762824 -271.93862915 115.42419434 C-265.48790248 110.57209886 -259.01029031 105.76007919 -252.50112915 100.98669434 C-245.75720579 96.03815823 -239.08164706 91.00730344 -232.43862915 85.92419434 C-225.03693636 80.26056186 -217.58437923 74.67612535 -210.06533813 69.16931152 C-205.83737619 66.07002116 -201.62988567 62.94668699 -197.44644165 59.78747559 C-196.08241211 58.75795776 -196.08241211 58.75795776 -194.69082642 57.7076416 C-192.93663229 56.38144728 -191.18441747 55.05262959 -189.43447876 53.7208252 C-188.64307495 53.12278076 -187.85167114 52.52473633 -187.0362854 51.90856934 C-186.34027222 51.37973145 -185.64425903 50.85089355 -184.92715454 50.30603027 C-181.10349327 47.64894951 -178.3040283 46.61535981 -173.62612915 46.54919434 C-172.72249634 46.52083496 -171.81886353 46.49247559 -170.8878479 46.46325684 C-164.32790385 47.48851962 -159.64701553 51.77146409 -155.00112915 56.23669434 C-153.95091622 57.22167564 -152.90013523 58.20605163 -151.8487854 59.18981934 C-150.88843384 60.09216309 -149.92808228 60.99450684 -148.93862915 61.92419434 C-142.44224897 67.78881645 -135.67730306 73.34232611 -128.93862915 78.92419434 C-122.91294497 75.02305147 -117.1841619 70.88564379 -111.56362915 66.42419434 C-103.68962223 60.23641187 -95.67761805 54.26265336 -87.5987854 48.34606934 C-80.66580357 43.26740927 -73.8035841 38.09421558 -66.93862915 32.92419434 C-70.84478117 26.77915031 -75.10577818 21.00851093 -79.68618774 15.35510254 C-82.93862915 11.24940871 -82.93862915 11.24940871 -82.93862915 7.92419434 C-74.44621986 6.73954657 -65.95245729 5.56532836 -57.45685387 4.40383148 C-53.51061818 3.86399121 -49.56491232 3.32077983 -45.62026978 2.76940918 C-41.80232691 2.23588225 -37.98318802 1.71180491 -34.16310501 1.1938324 C-32.71727273 0.99618311 -31.27187494 0.79532376 -29.82697678 0.59095764 C-5.19915666 -2.88517388 -5.19915666 -2.88517388 0 0 Z " fill="#57B78C" transform="translate(500.9386291503906,1.0758056640625)"/>
<path d="M0 0 C0.72822464 0.00141495 1.45644928 0.0028299 2.20674133 0.00428772 C4.52979664 0.00987966 6.85275513 0.02243063 9.17578125 0.03515625 C10.75195173 0.04017229 12.32812373 0.04473502 13.90429688 0.04882812 C17.76566223 0.05984645 21.62695533 0.07710551 25.48828125 0.09765625 C23.13588215 1.66592232 21.09386942 2.76308193 18.55078125 3.91015625 C13.19133179 6.58006514 10.42180131 10.31307307 8.1221931 15.83709931 C6.73278155 20.7918007 7.07946842 25.99747673 7.10733032 31.10324097 C7.10265035 32.41777571 7.09797038 33.73231045 7.09314859 35.08667958 C7.08064698 38.72487398 7.08680509 42.36283172 7.09610724 46.00102687 C7.102901 49.92887253 7.0924148 53.85667778 7.08416748 57.78451538 C7.07083069 65.47555061 7.07370786 73.16649799 7.0824054 80.85753666 C7.08918273 87.10968392 7.09009845 93.36180657 7.08683395 99.61395645 C7.08637425 100.50407584 7.08591456 101.39419522 7.08544093 102.31128792 C7.08448174 104.11961961 7.0835091 105.92795129 7.08252315 107.73628296 C7.07396916 124.69205934 7.08380302 141.64778706 7.09992425 158.60355546 C7.11332282 173.14572151 7.11100316 187.68781571 7.09716797 202.22998047 C7.08110436 219.12231254 7.074798 236.01460194 7.08400476 252.90694058 C7.08496039 254.70920189 7.0859035 256.5114632 7.08683395 258.31372452 C7.08729678 259.2004367 7.08775961 260.08714888 7.08823646 261.00073113 C7.09082435 267.24281633 7.08645959 273.48487442 7.07939529 279.72695541 C7.07097122 287.33780774 7.07327931 294.94856728 7.08923753 302.55940901 C7.09710876 306.4410353 7.10023157 310.32250702 7.09029007 314.20413208 C7.07966719 318.41559005 7.09237235 322.6266595 7.10733032 326.83810425 C7.10063816 328.05999919 7.09394599 329.28189413 7.08705103 330.54081619 C7.13896709 338.0745234 7.49539632 345.34715819 12.35546875 351.4375 C13.34933594 352.22833984 13.34933594 352.22833984 14.36328125 353.03515625 C15.06195313 353.59203125 15.760625 354.14890625 16.48046875 354.72265625 C18.72165301 356.25747504 20.86765925 357.36060631 23.48828125 358.09765625 C23.48828125 358.42765625 23.48828125 358.75765625 23.48828125 359.09765625 C18.93515783 359.22213178 14.38304471 359.31240034 9.82861328 359.37231445 C8.28253913 359.39731357 6.73658143 359.43132527 5.19091797 359.47485352 C-10.30953473 359.90014031 -10.30953473 359.90014031 -16.07861328 355.47338867 C-20.61615385 351.11750433 -24.15523722 346.88451522 -24.76586908 340.3978489 C-24.76782 339.41485761 -24.76977093 338.43186632 -24.77178097 337.41908741 C-24.77884656 336.2797122 -24.78591215 335.14033699 -24.79319185 333.96643525 C-24.79077677 332.71937151 -24.78836168 331.47230777 -24.78587341 330.18745422 C-24.79032678 328.84557792 -24.79564116 327.50370424 -24.80174214 326.16183442 C-24.81592094 322.47550395 -24.81758545 318.7892578 -24.81714523 315.10290396 C-24.81879356 311.12660391 -24.83186043 307.15033858 -24.84333801 303.17405701 C-24.86618655 294.47974455 -24.87410855 285.78545651 -24.87916446 277.0911181 C-24.88242183 271.66118204 -24.88894458 266.23125308 -24.89616585 260.80132103 C-24.91573206 245.76413482 -24.93213599 230.7269552 -24.93504238 215.68975544 C-24.93522995 214.7275054 -24.93541752 213.76525535 -24.93561077 212.77384622 C-24.93597702 210.8231676 -24.93634072 208.87248898 -24.93670189 206.92181037 C-24.9368847 205.95350406 -24.93706751 204.98519775 -24.93725586 203.98754883 C-24.93743641 203.01805902 -24.93761696 202.04856922 -24.93780298 201.04970094 C-24.94134407 185.34305361 -24.96836226 169.63654343 -25.00575375 153.92994366 C-25.04384554 137.79993272 -25.06319992 121.66998982 -25.06350189 105.53993291 C-25.06408629 96.48522049 -25.07256666 87.43067165 -25.10149956 78.37600136 C-25.12602518 70.66518668 -25.13328844 62.95459525 -25.11825203 55.2437521 C-25.11108775 51.31127267 -25.11191926 47.37923394 -25.13466263 43.44680405 C-25.15530971 39.8422113 -25.15259999 36.23839646 -25.13178778 32.63381162 C-25.12666122 30.72171113 -25.14602865 28.80959258 -25.16644949 26.89759427 C-25.09211 19.2407331 -23.83367302 13.5099962 -19.51171875 7.09765625 C-17.16015625 4.84375 -17.16015625 4.84375 -14.88671875 3.53515625 C-13.75363281 2.85259766 -13.75363281 2.85259766 -12.59765625 2.15625 C-8.36151959 0.00645031 -4.63469439 -0.03386558 0 0 Z " fill="#4DB8CC" transform="translate(400.51171875,152.90234375)"/>
<path d="M0 0 C0.69895386 0.0028299 1.39790771 0.00565979 2.11804199 0.00857544 C4.31846316 0.0196398 6.51845493 0.04471644 8.71875 0.0703125 C10.22395239 0.08036015 11.72916126 0.08948285 13.234375 0.09765625 C16.89596938 0.11953357 20.55731768 0.15396554 24.21875 0.1953125 C21.7609494 1.45379246 19.35332086 2.54148415 16.78125 3.5703125 C11.33432461 6.05487496 7.86454899 8.77142457 5.21875 14.1953125 C3.85037782 19.10152275 4.06751436 24.09337999 4.06484985 29.14433289 C4.0604676 30.15427034 4.05608535 31.16420779 4.0515703 32.20474941 C4.0382024 35.59312586 4.03200796 38.98147632 4.02587891 42.36987305 C4.01797644 44.79770525 4.0097074 47.22553629 4.00109863 49.65336609 C3.97716011 56.94096674 3.96195512 64.2285691 3.94903857 71.51619527 C3.94532393 73.57569427 3.94135094 75.6351926 3.9372859 77.69469094 C3.91205001 90.49425443 3.89000525 103.29381905 3.87755775 116.09340191 C3.87462826 119.05567618 3.87166656 122.01795042 3.86865234 124.98022461 C3.86790629 125.71644646 3.86716024 126.45266831 3.86639158 127.21119992 C3.8537405 139.13494067 3.82051783 151.05853224 3.77885051 162.98220327 C3.73638864 175.23400528 3.71285796 187.48573097 3.70763719 199.73760635 C3.70422823 206.61258933 3.69253383 213.48733899 3.65953445 220.36224937 C3.62853482 226.83095729 3.62314092 233.29937029 3.63491821 239.76814461 C3.63513897 242.13926076 3.62683232 244.51039576 3.60926437 246.88144684 C3.58654249 250.12524298 3.59488304 253.36756914 3.61074829 256.6113739 C3.5968662 257.54379007 3.58298412 258.47620623 3.56868136 259.43687743 C3.65045412 266.24906197 5.47571809 271.48255287 9.21875 277.1953125 C11.74744686 279.50606264 11.74744686 279.50606264 14.53125 280.7578125 C16.09673284 281.56455037 17.66023245 282.37519938 19.21875 283.1953125 C19.21875 283.5253125 19.21875 283.8553125 19.21875 284.1953125 C14.77135587 284.26980501 10.3242981 284.32407507 5.87646484 284.36010742 C4.36533273 284.37513793 2.85424382 284.39556814 1.34326172 284.42163086 C-0.83637187 284.45826939 -3.01542575 284.47509588 -5.1953125 284.48828125 C-6.5045166 284.5039917 -7.8137207 284.51970215 -9.16259766 284.53588867 C-15.62394454 283.92776703 -19.61333203 281.02132278 -23.78125 276.1953125 C-27.90155421 270.31212353 -28.35514555 265.88852581 -28.28918457 258.80250549 C-28.29542453 257.7690303 -28.3016645 256.7355551 -28.30809355 255.67076248 C-28.32402301 252.21460106 -28.31141888 248.75914493 -28.29882812 245.30297852 C-28.30424927 242.82234283 -28.31137188 240.34171035 -28.32006836 237.86108398 C-28.33641282 231.82668564 -28.33402255 225.79256311 -28.3224178 219.75817556 C-28.31337492 214.85231119 -28.31216316 209.94650257 -28.31651306 205.04063225 C-28.31712599 204.34172407 -28.31773893 203.64281589 -28.31837043 202.92272867 C-28.31964937 201.50278424 -28.32094622 200.08283983 -28.3222608 198.66289543 C-28.3336609 185.35488003 -28.32056232 172.04697492 -28.29905933 158.7389776 C-28.28119276 147.3284526 -28.28428987 135.91809041 -28.30273438 124.50756836 C-28.32415797 111.24790691 -28.33255819 97.98834211 -28.32028532 84.72866577 C-28.31901117 83.31371337 -28.31775368 81.89876095 -28.31651306 80.48380852 C-28.31589596 79.78767923 -28.31527886 79.09154994 -28.31464306 78.37432583 C-28.31119432 73.47678176 -28.31700828 68.57929916 -28.32643127 63.6817646 C-28.33884497 57.08498069 -28.3299607 50.48845617 -28.30685425 43.89168549 C-28.30156782 41.47137143 -28.30307975 39.0510315 -28.31190491 36.63072777 C-28.3228461 33.32517121 -28.30911255 30.02059722 -28.28918457 26.71510315 C-28.29810746 25.7587708 -28.30703034 24.80243845 -28.31622362 23.81712633 C-28.23479082 16.84633923 -26.71170873 11.38434111 -21.921875 6.171875 C-21.29796875 5.72585937 -20.6740625 5.27984375 -20.03125 4.8203125 C-19.41765625 4.35882813 -18.8040625 3.89734375 -18.171875 3.421875 C-12.36426519 0.44215362 -6.43347803 -0.05188289 0 0 Z " fill="#E34B4C" transform="translate(244.78125,227.8046875)"/>
<path d="M0 0 C1.49605615 0.02513426 2.99215334 0.04793832 4.48828125 0.06835938 C8.1180543 0.12290325 11.74625701 0.20888539 15.375 0.3125 C13.672302 1.447632 11.95973013 2.56903447 10.21875 3.64453125 C5.22924805 6.79623331 1.70906069 9.20054877 -0.17788124 15.01663589 C-0.79255274 18.17284934 -0.76494201 21.20549905 -0.77890015 24.42132568 C-0.7832824 25.13780407 -0.78766465 25.85428246 -0.7921797 26.59247231 C-0.80553572 28.99361707 -0.81173932 31.39472515 -0.81787109 33.79589844 C-0.82577451 35.51747807 -0.83404361 37.23905607 -0.84265137 38.96063232 C-0.86884124 44.61436385 -0.88417484 50.26810268 -0.8984375 55.921875 C-0.90379821 57.86942805 -0.90917572 59.81698104 -0.91456985 61.764534 C-0.9361931 69.86607599 -0.9549297 77.967616 -0.96619225 86.06917953 C-0.98243207 97.67396898 -1.01561708 109.27842367 -1.07259309 120.88308692 C-1.11130439 129.04628241 -1.13082628 137.2093884 -1.13611281 145.37267327 C-1.13976429 150.24674716 -1.15176428 155.12046375 -1.18421555 159.99443817 C-1.21431751 164.58117658 -1.22060047 169.16734187 -1.20883179 173.75415802 C-1.20861124 175.43433266 -1.21690088 177.11453407 -1.23448563 178.7946167 C-1.56326295 189.94786148 -1.56326295 189.94786148 2.94775963 199.87942886 C5.53053159 202.47275234 8.27382376 204.35990755 11.375 206.3125 C12.365 206.9725 13.355 207.6325 14.375 208.3125 C9.96425296 208.41211729 5.55411905 208.48431669 1.14257812 208.53222656 C-0.3549339 208.55221919 -1.85236908 208.57942299 -3.34960938 208.61425781 C-20.61262602 209.00555286 -20.61262602 209.00555286 -27.6484375 202.41796875 C-28.09445313 201.78503906 -28.54046875 201.15210938 -29 200.5 C-29.46148437 199.87480469 -29.92296875 199.24960937 -30.3984375 198.60546875 C-33.23757972 193.29790033 -33.87582434 188.01881701 -33.88569641 182.0774231 C-33.88952196 181.38358831 -33.89334751 180.68975353 -33.89728898 179.97489345 C-33.90754281 177.66824206 -33.90364147 175.36184314 -33.8996582 173.05517578 C-33.90400892 171.39388806 -33.90919327 169.73260234 -33.91514587 168.07131958 C-33.92850883 163.57125061 -33.92911753 159.07126576 -33.92658257 154.57118082 C-33.92551097 150.8088841 -33.93040111 147.04660427 -33.935188 143.28431118 C-33.94627396 134.40518542 -33.94672579 125.52610198 -33.94067383 116.64697266 C-33.93463486 107.4998421 -33.94694518 98.35286539 -33.9682439 89.20576108 C-33.9858815 81.34056627 -33.99185783 73.47542033 -33.98860615 65.61020648 C-33.98679651 60.91790194 -33.98939761 56.22570713 -34.00332069 51.53342056 C-34.01592949 47.11908644 -34.01392616 42.70499147 -34.00090981 38.29066086 C-33.99855106 36.67542692 -34.00125342 35.06017599 -34.00953293 33.44496155 C-34.05442624 24.00218764 -33.84259473 15.97546672 -29.0625 7.5625 C-20.43539182 -0.40098447 -11.05972833 -0.3254306 0 0 Z " fill="#F2C42D" transform="translate(90.625,303.6875)"/>
<path d="M0 0 C0.66 0.33 1.32 0.66 2 1 C-0.97 3.97 -3.94 6.94 -7 10 C-7 6.04435836 -5.59478606 4.89133304 -3 2 C-2.01 1.34 -1.02 0.68 0 0 Z " fill="#EB5254" transform="translate(227,231)"/>
<path d="M0 0 C0.66 0.33 1.32 0.66 2 1 C-0.64 3.64 -3.28 6.28 -6 9 C-6 6 -6 6 -3.5625 3.375 C-2.716875 2.59125 -1.87125 1.8075 -1 1 C-0.67 0.67 -0.34 0.34 0 0 Z " fill="#F5CC36" transform="translate(67,307)"/>
</svg>
